<?xml version="1.0" standalone="no"?>
<!DOCTYPE svg PUBLIC "-//W3C//DTD SVG 20010904//EN"
 "http://www.w3.org/TR/2001/REC-SVG-20010904/DTD/svg10.dtd">
<svg version="1.0" xmlns="http://www.w3.org/2000/svg"
 width="501.000000pt" height="501.000000pt" viewBox="0 0 501.000000 501.000000"
 preserveAspectRatio="xMidYMid meet">
<metadata>
Created by potrace 1.11, written by Peter Selinger 2001-2013
</metadata>
<g transform="translate(0.000000,501.000000) scale(0.100000,-0.100000)"
fill="#000000" stroke="none">
<path d="M2183 4994 c-911 -124 -1666 -713 -2009 -1567 -114 -283 -163 -531
-171 -863 -7 -302 16 -498 92 -762 277 -961 1103 -1663 2105 -1788 132 -16
447 -19 570 -4 482 57 914 236 1295 538 114 91 335 319 427 442 282 377 448
797 498 1257 16 147 8 512 -15 653 -83 519 -333 1009 -704 1381 -395 395 -908
645 -1461 714 -154 19 -485 18 -627 -1z m-31 -286 c-11 -18 -23 -47 -26 -64
-6 -29 -11 -32 -56 -38 -68 -9 -180 -68 -228 -120 -52 -56 -98 -147 -119 -233
-20 -85 -20 -278 0 -423 132 -926 141 -977 212 -1225 24 -83 57 -187 74 -230
75 -195 206 -323 394 -385 118 -40 220 -17 346 77 37 29 121 152 174 258 68
136 125 325 167 555 12 63 32 174 45 245 53 282 107 782 109 1010 1 168 -10
224 -63 307 -53 83 -114 115 -253 133 -45 6 -48 8 -54 43 -4 20 -14 48 -22 61
l-16 23 105 -4 c91 -3 112 -7 171 -35 164 -77 248 -243 248 -487 0 -246 -60
-745 -146 -1226 -61 -342 -121 -543 -220 -742 -86 -173 -123 -216 -286 -328
-71 -48 -108 -93 -151 -185 -71 -150 -73 -272 -7 -478 51 -158 99 -233 188
-294 88 -60 174 -85 292 -85 195 0 374 77 503 216 349 375 407 867 160 1360
-73 147 -157 261 -291 395 -136 137 -127 117 -106 224 l6 27 45 -32 c69 -49
197 -173 262 -252 240 -294 361 -622 361 -979 0 -303 -102 -569 -317 -829 -91
-110 -201 -181 -363 -233 -112 -37 -300 -46 -400 -20 -268 69 -440 308 -479
665 -31 284 -41 316 -128 439 -26 36 -104 122 -173 191 -72 72 -139 149 -159
182 -93 161 -217 651 -281 1118 -11 80 -25 174 -30 210 -48 309 -53 363 -54
520 0 183 11 247 66 377 44 108 132 199 242 253 79 39 178 67 244 69 l34 1
-20 -32z m206 18 c73 -38 103 -126 68 -195 -50 -96 -204 -94 -250 3 -57 120
68 251 182 192z m410 -6 c124 -76 75 -260 -69 -260 -88 0 -145 63 -137 152 10
102 121 160 206 108z m-3 -1409 c140 -30 325 -98 325 -120 0 -4 -5 -33 -11
-63 l-11 -56 -74 34 c-169 77 -317 108 -514 107 -180 0 -310 -25 -460 -89 -58
-24 -108 -44 -112 -44 -3 0 -9 17 -13 38 -3 20 -9 47 -12 59 -4 17 3 26 35 42
54 28 262 87 352 100 41 6 86 13 100 15 56 10 309 -5 395 -23z m-1119 -323
l11 -61 -36 -30 c-80 -66 -240 -239 -299 -323 -162 -227 -252 -474 -252 -691
l0 -63 -44 0 c-24 0 -51 -3 -60 -6 -14 -5 -16 6 -16 82 0 332 175 690 482 991
89 87 191 173 198 166 3 -2 10 -32 16 -65z m-418 -1308 c75 -40 125 -93 160
-169 38 -81 38 -202 0 -283 -86 -186 -305 -266 -481 -176 -62 31 -134 105
-164 167 -24 49 -27 68 -27 151 0 109 17 157 85 234 77 87 152 117 279 113 74
-3 93 -7 148 -37z"/>
</g>
</svg>
